<svg xmlns="http://www.w3.org/2000/svg" width="512" height="512" viewBox="0 0 512 512" fill="none"><rect width="512" height="512" rx="256" fill="black"></rect><path d="M210.877 174.915C175.921 194.38 158.468 233.046 164.299 270.366L304.27 270.632L309.267 298.673L111.816 298.264C108.517 286.961 106.584 275.478 106 264.02L134.226 253.338L138.554 223.76L114.654 205.411C118.558 194.547 123.709 184.1 130.09 174.319L159.149 182.229L180.05 160.886L171.536 131.979C176.458 128.634 181.641 125.49 187.11 122.66C192.12 120.109 197.176 117.87 202.293 115.893L221.134 139.418L250.594 134.434L260.694 106C272.366 106.394 283.955 108.082 295.139 111.1L296.522 141.221L323.261 154.541L348.175 137.469C357.228 144.526 365.597 152.625 372.968 161.784L357.469 185.235L316.097 185.151C287.443 160.897 245.638 155.558 210.877 174.915Z" fill="white"></path><path d="M340.022 380.378C335.164 383.626 330.106 386.67 324.817 389.38C319.693 392.045 314.44 394.34 309.15 396.325L290.389 372.767L260.912 377.657L250.702 406C239.044 405.618 227.528 403.854 216.366 400.828L215.083 370.712L188.383 357.315L163.416 374.274C154.654 367.431 146.546 359.548 139.37 350.675L155.628 325.899L194.976 325.98C223.652 350.96 266.032 356.642 301.196 337.061C335.897 317.738 353.352 279.492 347.898 242.427L200.817 242.18L205.964 214.139L400.314 214.275C403.563 225.596 405.438 237.091 406 248.556L377.746 259.154L373.289 288.71L397.137 307.122C393.182 318.018 388.008 328.458 381.614 338.193L352.569 330.134L331.543 351.428L340.026 380.375" fill="white"></path></svg>